<svg width="24" height="24" viewBox="0 0 24 24" fill="none" xmlns="http://www.w3.org/2000/svg">
<path d="M18.7428 6.45579L23.7489 1.44548C23.9373 1.22525 24.0014 0.924667 23.9192 0.646767C23.8372 0.368892 23.62 0.151502 23.3424 0.0694711C23.0647 -0.0127848 22.7644 0.0513407 22.5443 0.2399L17.111 5.6777C14.0611 4.45666 10.6741 4.37576 7.56938 5.44964C4.46474 6.52352 1.85052 8.68051 0.204919 11.526C0.0523672 11.7905 0.0523672 12.1165 0.204919 12.381C1.43202 14.4977 3.20142 16.2481 5.33065 17.4509L0.332818 22.4612C0.152046 22.6162 0.0441125 22.8397 0.0349594 23.0776C0.0256154 23.3156 0.116195 23.5467 0.284382 23.7153C0.45276 23.8836 0.683687 23.9743 0.921487 23.9651C1.15928 23.9557 1.38257 23.8477 1.5374 23.6668L6.97068 18.229C8.58333 18.8811 10.3058 19.2178 12.0452 19.2208C14.4435 19.2136 16.7981 18.5785 18.8751 17.3786C20.9523 16.1787 22.6795 14.4558 23.8856 12.381C23.9605 12.251 24 12.1035 24 11.9535C24 11.8035 23.9605 11.656 23.8856 11.526C22.654 9.40701 20.8783 7.65655 18.7428 6.45608L18.7428 6.45579ZM1.93916 11.9532C3.02381 10.2539 4.51765 8.85438 6.28344 7.88334C8.04923 6.91231 10.0305 6.40082 12.0452 6.39569C13.317 6.39646 14.5803 6.60142 15.7869 7.00279L13.7538 9.02064C13.2373 8.71013 12.6478 8.54199 12.0452 8.53321C11.1389 8.53321 10.2697 8.89353 9.62903 9.53498C8.98812 10.1762 8.62809 11.0461 8.62809 11.9532C8.63687 12.5563 8.80486 13.1462 9.11512 13.6632L6.60336 16.2282C4.69571 15.2448 3.08535 13.7689 1.93909 11.9532L1.93916 11.9532ZM13.7537 11.9532C13.7537 12.4066 13.5737 12.8416 13.2534 13.1624C12.9328 13.483 12.4982 13.6632 12.0452 13.6632C11.8976 13.6594 11.7511 13.6363 11.6094 13.5949L13.6938 11.5087V11.5085C13.7333 11.6536 13.7533 11.803 13.7537 11.9532L13.7537 11.9532ZM10.3366 11.9532C10.3366 11.4997 10.5166 11.0648 10.8369 10.744C11.1575 10.4234 11.5921 10.2432 12.0452 10.2432C12.1927 10.247 12.3392 10.2701 12.4809 10.3115L10.3965 12.3977V12.3979C10.357 12.2528 10.337 12.1034 10.3366 11.9532L10.3366 11.9532ZM12.0452 17.5107C10.7734 17.5099 9.51011 17.305 8.30346 16.9036L10.3366 14.8857C10.8531 15.1963 11.4426 15.3644 12.0452 15.3732C12.9515 15.3732 13.8207 15.0129 14.4614 14.3714C15.1023 13.7302 15.4623 12.8603 15.4623 11.9532C15.4535 11.3501 15.2855 10.7602 14.9753 10.2432L17.487 7.67817C19.3947 8.66162 21.005 10.1374 22.1513 11.9532C21.0667 13.6525 19.5728 15.052 17.807 16.023C16.0412 16.9941 14.06 17.5055 12.0452 17.5107L12.0452 17.5107Z" />
</svg>
