<svg width="24" height="24" viewBox="0 0 24 24" xmlns="http://www.w3.org/2000/svg">
<path d="M23.8852 11.5716C22.2743 8.77505 19.7284 6.63622 16.6955 5.53143C13.6626 4.42654 10.3375 4.42654 7.3045 5.53143C4.27178 6.63617 1.72585 8.775 0.114804 11.5716C-0.0382678 11.8367 -0.0382678 12.1634 0.114804 12.4286C1.7259 15.2251 4.27163 17.3639 7.3045 18.4687C10.3374 19.5736 13.6625 19.5736 16.6955 18.4687C19.7282 17.3639 22.2741 15.2251 23.8852 12.4286C23.9604 12.2983 24 12.1504 24 12.0001C24 11.8497 23.9604 11.7018 23.8852 11.5716ZM12.0044 17.5706C9.98274 17.5654 7.99472 17.0527 6.22296 16.0794C4.45121 15.1061 2.95223 13.7033 1.86388 12.0001C3.31289 9.71084 5.49434 7.97926 8.05336 7.08725C10.6119 6.19523 13.3974 6.19523 15.9562 7.08725C18.515 7.97926 20.6965 9.71084 22.1457 12.0001C21.0574 13.7033 19.5584 15.1061 17.7866 16.0794C16.0148 17.0527 14.0268 17.5654 12.0052 17.5706H12.0044ZM12.0044 8.57206C11.095 8.57206 10.2229 8.93322 9.57995 9.57617C8.93686 10.2189 8.57561 11.0909 8.57561 12.0001C8.57561 12.9093 8.93686 13.7812 9.57995 14.4239C10.2229 15.0669 11.095 15.4281 12.0044 15.4281C12.9138 15.4281 13.786 15.0669 14.4289 14.4239C15.072 13.7812 15.4332 12.9093 15.4332 12.0001C15.4332 11.0909 15.072 10.2189 14.4289 9.57617C13.786 8.93322 12.9138 8.57206 12.0044 8.57206ZM12.0044 13.7141C11.5498 13.7141 11.1137 13.5335 10.7921 13.2121C10.4706 12.8905 10.29 12.4546 10.29 12.0001C10.29 11.5456 10.4706 11.1096 10.7921 10.788C11.1137 10.4666 11.5498 10.2861 12.0044 10.2861C12.459 10.2861 12.8951 10.4666 13.2167 10.788C13.5382 11.1096 13.7188 11.5456 13.7188 12.0001C13.7188 12.4546 13.5382 12.8906 13.2167 13.2121C12.8951 13.5335 12.459 13.7141 12.0044 13.7141Z" />
</svg>
